<svg width="49" height="48" viewBox="0 0 49 48" fill="none" xmlns="http://www.w3.org/2000/svg">
<rect x="0.5" width="48" height="48" rx="24" fill="#437EF7"/>
<path d="M33.5667 14.668H15.4333C13.9399 14.668 13.1931 14.668 12.6227 14.9586C12.1209 15.2143 11.713 15.6222 11.4573 16.124C11.1667 16.6944 11.1667 17.4412 11.1667 18.9346V34.2754C11.1667 34.8469 11.1667 35.1326 11.287 35.3047C11.3921 35.455 11.5545 35.5553 11.7359 35.5821C11.9436 35.6128 12.1992 35.485 12.7104 35.2295L15.5991 33.7851C15.9351 33.6171 16.1031 33.5331 16.2792 33.4739C16.4355 33.4212 16.5964 33.3833 16.7598 33.3604C16.9438 33.3346 17.1316 33.3346 17.5072 33.3346H33.5667C35.0601 33.3346 35.8069 33.3346 36.3773 33.044C36.8791 32.7883 37.287 32.3804 37.5427 31.8786C37.8333 31.3082 37.8333 30.5614 37.8333 29.068V18.9346C37.8333 17.4412 37.8333 16.6944 37.5427 16.124C37.287 15.6222 36.8791 15.2143 36.3773 14.9586C35.8069 14.668 35.0601 14.668 33.5667 14.668Z" fill="white"/>
</svg>
