<svg width="49" height="48" viewBox="0 0 49 48" fill="none" xmlns="http://www.w3.org/2000/svg">
<rect x="0.5" width="48" height="48" rx="24" fill="#437EF7"/>
<path d="M21.8333 15.9987C21.8333 14.5259 23.0272 13.332 24.5 13.332C25.9728 13.332 27.1667 14.5259 27.1667 15.9987V31.9987C27.1667 33.4715 25.9728 34.6654 24.5 34.6654C23.0272 34.6654 21.8333 33.4715 21.8333 31.9987V15.9987Z" fill="white"/>
<path d="M11.1667 26.6654C11.1667 25.1926 12.3606 23.9987 13.8333 23.9987C15.3061 23.9987 16.5 25.1926 16.5 26.6654V31.9987C16.5 33.4715 15.3061 34.6654 13.8333 34.6654C12.3606 34.6654 11.1667 33.4715 11.1667 31.9987V26.6654Z" fill="white"/>
<path d="M35.1667 18.6654C33.6939 18.6654 32.5 19.8593 32.5 21.332V31.9987C32.5 33.4715 33.6939 34.6654 35.1667 34.6654C36.6394 34.6654 37.8333 33.4715 37.8333 31.9987V21.332C37.8333 19.8593 36.6394 18.6654 35.1667 18.6654Z" fill="white"/>
</svg>
