<svg width="49" height="48" viewBox="0 0 49 48" fill="none" xmlns="http://www.w3.org/2000/svg">
<rect x="0.5" width="48" height="48" rx="24" fill="#437EF7"/>
<path fill-rule="evenodd" clip-rule="evenodd" d="M28.6393 9.98634C28.967 9.32691 29.7672 9.05799 30.4267 9.3857C33.9612 11.1422 36.6067 14.4213 37.5029 18.3706C37.6658 19.0888 37.2158 19.803 36.4977 19.966C35.7795 20.1289 35.0653 19.6789 34.9023 18.9607C34.1868 15.8075 32.0707 13.1805 29.2399 11.7737C28.5805 11.446 28.3116 10.6458 28.6393 9.98634Z" fill="white"/>
<path d="M24.5 11.9991C19.3604 11.9991 15.1218 15.988 15.1218 21.3325V25.5448C15.1218 26.0507 15.043 26.5527 14.8887 27.0313L13.9041 30.0866C13.6192 30.9705 14.2392 31.999 15.2917 31.999H33.6509C34.6455 31.999 35.3515 31.0297 35.0465 30.0831L34.0551 27.0069C33.9059 26.5438 33.8299 26.0602 33.8299 25.5736V21.3325C33.8299 16.1671 29.6668 11.9991 24.5 11.9991Z" fill="white"/>
<path d="M20.1225 34.3301C21.3294 35.3758 22.849 35.999 24.5 35.999C26.151 35.999 27.6706 35.3758 28.8775 34.3301C29.2995 33.9645 29.0081 33.3324 28.4497 33.3324H20.5503C19.9919 33.3324 19.7005 33.9645 20.1225 34.3301Z" fill="white"/>
</svg>
