<svg width="24" height="24" viewBox="0 0 24 24" fill="none" xmlns="http://www.w3.org/2000/svg">
<g clip-path="url(#clip0_3_99268)">
<path d="M23.7628 12.2743C23.7628 11.4586 23.6966 10.6384 23.5555 9.83594H12.2368V14.4569H18.7185C18.4495 15.9473 17.5853 17.2657 16.3198 18.1034V21.1018H20.1868C22.4576 19.0118 23.7628 15.9252 23.7628 12.2743Z" fill="white"/>
<path d="M12.2373 24.0013C15.4737 24.0013 18.2031 22.9387 20.1917 21.1044L16.3247 18.106C15.2488 18.838 13.8599 19.2525 12.2417 19.2525C9.11105 19.2525 6.45663 17.1404 5.50421 14.3008H1.51376V17.3917C3.55088 21.4439 7.70006 24.0013 12.2373 24.0013Z" fill="white"/>
<path d="M5.49972 14.2987C4.99706 12.8084 4.99706 11.1946 5.49972 9.70422V6.61328H1.51368C-0.188318 10.0041 -0.188318 13.9989 1.51368 17.3897L5.49972 14.2987Z" fill="white"/>
<path d="M12.2373 4.74966C13.9481 4.7232 15.6016 5.36697 16.8406 6.54867L20.2667 3.12262C18.0973 1.0855 15.218 -0.034466 12.2373 0.000808666C7.70009 0.000808666 3.55091 2.55822 1.51379 6.61481L5.49983 9.70575C6.44784 6.86173 9.10667 4.74966 12.2373 4.74966Z" fill="white"/>
</g>
<defs>
<clipPath id="clip0_3_99268">
<rect width="24" height="24" fill="white"/>
</clipPath>
</defs>
</svg>
