<svg width="21" height="25" viewBox="0 0 21 25" fill="none" xmlns="http://www.w3.org/2000/svg">
<path d="M20.184 19.5036C19.8211 20.3421 19.3915 21.1139 18.8937 21.8235C18.2152 22.7909 17.6597 23.4605 17.2315 23.8323C16.5679 24.4427 15.8568 24.7553 15.0953 24.7731C14.5487 24.7731 13.8894 24.6175 13.1221 24.302C12.3521 23.9879 11.6446 23.8323 10.9977 23.8323C10.3192 23.8323 9.5915 23.9879 8.81315 24.302C8.03362 24.6175 7.40564 24.7819 6.92551 24.7982C6.19531 24.8293 5.46748 24.5079 4.74099 23.8323C4.2773 23.4279 3.69732 22.7346 3.00252 21.7524C2.25707 20.7035 1.6442 19.4873 1.16407 18.1007C0.649859 16.6029 0.39209 15.1526 0.39209 13.7485C0.39209 12.1401 0.739634 10.7529 1.43576 9.5904C1.98285 8.65665 2.71068 7.92008 3.62162 7.37936C4.53255 6.83863 5.51681 6.56308 6.57678 6.54545C7.15676 6.54545 7.91733 6.72486 8.86248 7.07744C9.80497 7.43121 10.4101 7.61061 10.6755 7.61061C10.8738 7.61061 11.5461 7.40084 12.6858 6.98263C13.7635 6.59479 14.6731 6.4342 15.4183 6.49746C17.4375 6.66041 18.9545 7.45639 19.9633 8.89042C18.1574 9.98461 17.2641 11.5172 17.2819 13.4832C17.2982 15.0145 17.8538 16.2889 18.9456 17.3007C19.4404 17.7703 19.9929 18.1333 20.6077 18.391C20.4744 18.7777 20.3337 19.148 20.184 19.5036ZM15.5531 1.28043C15.5531 2.4807 15.1146 3.6014 14.2405 4.6387C13.1858 5.87185 11.9099 6.58442 10.5264 6.47198C10.5088 6.32798 10.4986 6.17643 10.4986 6.01717C10.4986 4.86491 11.0002 3.63177 11.891 2.6235C12.3357 2.113 12.9013 1.68852 13.5872 1.34991C14.2716 1.01635 14.919 0.831882 15.5279 0.800293C15.5457 0.960751 15.5531 1.12122 15.5531 1.28041V1.28043Z" fill="#272D37"/>
</svg>
