<svg width="347" height="50" viewBox="0 0 347 50" fill="none" xmlns="http://www.w3.org/2000/svg">
<g filter="url(#filter0_d_9207_23110)">
<g clip-path="url(#clip0_9207_23110)">
<path d="M7 1.5H257.5V46.5H7C4.51472 46.5 2.5 44.4853 2.5 42V6C2.5 3.51472 4.51472 1.5 7 1.5Z" fill="white"/>
<path d="M7 1.5H257.5V46.5H7C4.51472 46.5 2.5 44.4853 2.5 42V6C2.5 3.51472 4.51472 1.5 7 1.5Z" stroke="#DAE0E6"/>
<g clip-path="url(#clip1_9207_23110)">
<path d="M32.4595 33.8725C32.8501 34.263 33.4832 34.263 33.8738 33.8725C34.2643 33.4819 34.2643 32.8488 33.8738 32.4583L32.4595 33.8725ZM28.9314 22.3811C28.9314 25.998 25.9993 28.9301 22.3823 28.9301V30.9301C27.1038 30.9301 30.9314 27.1025 30.9314 22.3811H28.9314ZM22.3823 28.9301C18.7654 28.9301 15.8333 25.998 15.8333 22.3811H13.8333C13.8333 27.1025 17.6608 30.9301 22.3823 30.9301V28.9301ZM15.8333 22.3811C15.8333 18.7641 18.7654 15.832 22.3823 15.832V13.832C17.6608 13.832 13.8333 17.6596 13.8333 22.3811H15.8333ZM22.3823 15.832C25.9993 15.832 28.9314 18.7641 28.9314 22.3811H30.9314C30.9314 17.6596 27.1038 13.832 22.3823 13.832V15.832ZM27.0674 28.4803L32.4595 33.8725L33.8738 32.4583L28.4816 27.0661L27.0674 28.4803Z" fill="#919BA7"/>
</g>
<path d="M49.1484 20.9567C49.0916 20.4524 48.8572 20.0618 48.4453 19.7848C48.0334 19.5043 47.5149 19.364 46.8899 19.364C46.4425 19.364 46.0554 19.435 45.7287 19.5771C45.402 19.7156 45.1481 19.9073 44.967 20.1523C44.7894 20.3938 44.7006 20.669 44.7006 20.978C44.7006 21.2372 44.761 21.4609 44.8817 21.6491C45.006 21.8374 45.1676 21.9954 45.3665 22.1232C45.5689 22.2475 45.7855 22.3523 46.0163 22.4375C46.2472 22.5192 46.4691 22.5866 46.6822 22.6399L47.7475 22.9169C48.0955 23.0021 48.4524 23.1175 48.8182 23.2631C49.1839 23.4087 49.5231 23.6005 49.8356 23.8384C50.1481 24.0763 50.4002 24.3711 50.592 24.7227C50.7873 25.0742 50.8849 25.495 50.8849 25.9851C50.8849 26.603 50.7251 27.1516 50.4055 27.631C50.0895 28.1104 49.6296 28.4886 49.0259 28.7656C48.4258 29.0426 47.6996 29.1811 46.8473 29.1811C46.0305 29.1811 45.3239 29.0515 44.7273 28.7923C44.1307 28.533 43.6637 28.1655 43.3263 27.6896C42.989 27.2102 42.8026 26.642 42.767 25.9851H44.4183C44.4503 26.3793 44.5781 26.7077 44.8018 26.9705C45.0291 27.2298 45.3185 27.4233 45.6701 27.5511C46.0252 27.6754 46.4141 27.7376 46.8366 27.7376C47.3018 27.7376 47.7156 27.6648 48.0778 27.5192C48.4435 27.37 48.7312 27.1641 48.9407 26.9013C49.1502 26.6349 49.255 26.3242 49.255 25.9691C49.255 25.646 49.1626 25.3814 48.978 25.1754C48.7969 24.9695 48.5501 24.799 48.2376 24.6641C47.9286 24.5291 47.5788 24.4102 47.1882 24.3072L45.8991 23.9556C45.0256 23.7177 44.3331 23.3679 43.8217 22.9062C43.3139 22.4446 43.06 21.8338 43.06 21.0739C43.06 20.4453 43.2305 19.8967 43.5714 19.4279C43.9123 18.9592 44.3739 18.5952 44.9563 18.3359C45.5387 18.0732 46.1957 17.9418 46.9272 17.9418C47.6658 17.9418 48.3175 18.0714 48.8821 18.3306C49.4503 18.5898 49.8977 18.9467 50.2244 19.4013C50.5511 19.8523 50.7216 20.3707 50.7358 20.9567H49.1484ZM56.1503 29.1651C55.3442 29.1651 54.6499 28.9929 54.0675 28.6484C53.4887 28.3004 53.0412 27.8121 52.7252 27.1836C52.4127 26.5515 52.2564 25.8111 52.2564 24.9624C52.2564 24.1243 52.4127 23.3857 52.7252 22.7464C53.0412 22.1072 53.4816 21.6083 54.0462 21.2496C54.6144 20.891 55.2785 20.7116 56.0384 20.7116C56.5001 20.7116 56.9475 20.788 57.3807 20.9407C57.814 21.0934 58.2028 21.3331 58.5473 21.6598C58.8917 21.9865 59.1634 22.4109 59.3623 22.9329C59.5611 23.4513 59.6606 24.0817 59.6606 24.8239V25.3885H53.1567V24.1953H58.0998C58.0998 23.7763 58.0146 23.4052 57.8442 23.082C57.6737 22.7553 57.434 22.4979 57.1251 22.3097C56.8197 22.1214 56.461 22.0273 56.0491 22.0273C55.6016 22.0273 55.211 22.1374 54.8772 22.3576C54.5469 22.5742 54.2912 22.8583 54.1101 23.2099C53.9326 23.5579 53.8438 23.9361 53.8438 24.3445V25.2766C53.8438 25.8235 53.9397 26.2887 54.1314 26.6722C54.3268 27.0558 54.5984 27.3487 54.9464 27.5511C55.2944 27.75 55.701 27.8494 56.1662 27.8494C56.4681 27.8494 56.7433 27.8068 56.9919 27.7216C57.2405 27.6328 57.4553 27.5014 57.6364 27.3274C57.8175 27.1534 57.956 26.9386 58.0519 26.6829L59.5594 26.9545C59.4386 27.3984 59.222 27.7873 58.9095 28.1211C58.6006 28.4513 58.2117 28.7088 57.743 28.8935C57.2778 29.0746 56.7469 29.1651 56.1503 29.1651ZM63.7087 29.1811C63.1903 29.1811 62.7215 29.0852 62.3025 28.8935C61.8835 28.6982 61.5514 28.4158 61.3064 28.0465C61.0649 27.6772 60.9442 27.2244 60.9442 26.6882C60.9442 26.2266 61.033 25.8466 61.2105 25.5483C61.3881 25.25 61.6278 25.0138 61.9296 24.8398C62.2315 24.6658 62.5688 24.5344 62.9417 24.4457C63.3146 24.3569 63.6945 24.2894 64.0816 24.2433C64.5717 24.1864 64.9694 24.1403 65.2748 24.1048C65.5802 24.0657 65.8021 24.0036 65.9406 23.9183C66.0791 23.8331 66.1484 23.6946 66.1484 23.5028V23.4656C66.1484 23.0004 66.017 22.6399 65.7542 22.3842C65.495 22.1286 65.1079 22.0007 64.593 22.0007C64.0567 22.0007 63.6342 22.1197 63.3252 22.3576C63.0198 22.592 62.8085 22.853 62.6913 23.1406L61.1945 22.7997C61.3721 22.3026 61.6313 21.9013 61.9722 21.5959C62.3167 21.2869 62.7126 21.0632 63.1601 20.9247C63.6075 20.7827 64.0781 20.7116 64.5717 20.7116C64.8984 20.7116 65.2446 20.7507 65.6104 20.8288C65.9797 20.9034 66.3241 21.0419 66.6437 21.2443C66.9669 21.4467 67.2315 21.7362 67.4374 22.1126C67.6434 22.4854 67.7464 22.9702 67.7464 23.5668V29H66.191V27.8814H66.1271C66.0241 28.0874 65.8696 28.2898 65.6636 28.4886C65.4577 28.6875 65.1931 28.8526 64.87 28.984C64.5468 29.1154 64.1597 29.1811 63.7087 29.1811ZM64.055 27.9027C64.4953 27.9027 64.8717 27.8157 65.1842 27.6417C65.5003 27.4677 65.74 27.2404 65.9033 26.9599C66.0702 26.6758 66.1537 26.3722 66.1537 26.049V24.9943C66.0969 25.0511 65.9868 25.1044 65.8234 25.1541C65.6636 25.2003 65.4808 25.2411 65.2748 25.2766C65.0688 25.3086 64.8682 25.3388 64.6729 25.3672C64.4776 25.392 64.3142 25.4134 64.1828 25.4311C63.8739 25.4702 63.5915 25.5359 63.3359 25.6282C63.0837 25.7205 62.8813 25.8537 62.7286 26.0277C62.5795 26.1982 62.5049 26.4254 62.5049 26.7095C62.5049 27.1037 62.6505 27.402 62.9417 27.6044C63.2329 27.8033 63.604 27.9027 64.055 27.9027ZM69.7677 29V20.8182H71.3072V22.1179H71.3924C71.5415 21.6776 71.8043 21.3313 72.1807 21.0792C72.5607 20.8235 72.9904 20.6957 73.4698 20.6957C73.5692 20.6957 73.6864 20.6992 73.8214 20.7063C73.9599 20.7134 74.0682 20.7223 74.1463 20.733V22.2564C74.0824 22.2386 73.9687 22.2191 73.8054 22.1978C73.642 22.1729 73.4787 22.1605 73.3153 22.1605C72.9389 22.1605 72.6033 22.2404 72.3086 22.4002C72.0174 22.5565 71.7866 22.7749 71.6161 23.0554C71.4457 23.3324 71.3604 23.6484 71.3604 24.0036V29H69.7677ZM78.578 29.1651C77.7861 29.1651 77.1043 28.9858 76.5325 28.6271C75.9643 28.2649 75.5276 27.766 75.2222 27.1303C74.9168 26.4947 74.7641 25.7667 74.7641 24.9464C74.7641 24.1154 74.9203 23.3821 75.2328 22.7464C75.5453 22.1072 75.9857 21.6083 76.5538 21.2496C77.122 20.891 77.7914 20.7116 78.562 20.7116C79.1835 20.7116 79.7374 20.8271 80.2239 21.0579C80.7104 21.2852 81.1028 21.6048 81.4011 22.0167C81.703 22.4286 81.8823 22.9098 81.9391 23.4602H80.3891C80.3038 23.0767 80.1085 22.7464 79.8031 22.4695C79.5013 22.1925 79.0964 22.054 78.5886 22.054C78.1447 22.054 77.7559 22.1712 77.4221 22.4055C77.0918 22.6364 76.8344 22.9666 76.6497 23.3963C76.4651 23.8224 76.3727 24.3267 76.3727 24.9091C76.3727 25.5057 76.4633 26.0206 76.6444 26.4538C76.8255 26.8871 77.0812 27.2227 77.4114 27.4606C77.7452 27.6985 78.1376 27.8175 78.5886 27.8175C78.8905 27.8175 79.1639 27.7624 79.4089 27.6523C79.6575 27.5387 79.8653 27.3771 80.0322 27.1676C80.2026 26.9581 80.3216 26.706 80.3891 26.4112H81.9391C81.8823 26.9403 81.7101 27.4126 81.4224 27.8281C81.1348 28.2436 80.7495 28.5703 80.2665 28.8082C79.7871 29.0462 79.2243 29.1651 78.578 29.1651ZM85.135 24.142V29H83.5423V18.0909H85.1137V22.1499H85.2149C85.4067 21.7095 85.6997 21.3597 86.0938 21.1005C86.488 20.8413 87.0029 20.7116 87.6386 20.7116C88.1997 20.7116 88.6897 20.8271 89.1088 21.0579C89.5313 21.2887 89.858 21.6332 90.0889 22.0913C90.3232 22.5458 90.4404 23.114 90.4404 23.7958V29H88.8477V23.9876C88.8477 23.3874 88.6933 22.9222 88.3843 22.592C88.0754 22.2582 87.6457 22.0913 87.0953 22.0913C86.7188 22.0913 86.3815 22.1712 86.0832 22.331C85.7884 22.4908 85.5558 22.7251 85.3854 23.0341C85.2185 23.3395 85.135 23.7088 85.135 24.142Z" fill="#919BA7"/>
<g filter="url(#filter1_d_9207_23110)">
<path d="M258 1H339C342.314 1 345 3.68629 345 7V41C345 44.3137 342.314 47 339 47H258V1Z" fill="#437EF7"/>
<path d="M283.005 21.0898C282.955 20.6246 282.745 20.2624 282.376 20.0032C282.01 19.744 281.534 19.6143 280.949 19.6143C280.537 19.6143 280.183 19.6765 279.888 19.8008C279.594 19.9251 279.368 20.0937 279.212 20.3068C279.056 20.5199 278.976 20.7631 278.972 21.0366C278.972 21.2638 279.024 21.4609 279.127 21.6278C279.233 21.7947 279.377 21.9368 279.558 22.054C279.739 22.1676 279.94 22.2635 280.16 22.3416C280.38 22.4197 280.602 22.4854 280.826 22.5387L281.849 22.7944C282.261 22.8903 282.657 23.0199 283.037 23.1832C283.42 23.3466 283.763 23.5526 284.065 23.8011C284.37 24.0497 284.612 24.3498 284.789 24.7013C284.967 25.0529 285.055 25.4648 285.055 25.9371C285.055 26.5763 284.892 27.1392 284.565 27.6257C284.239 28.1087 283.766 28.4869 283.148 28.7603C282.534 29.0302 281.79 29.1651 280.917 29.1651C280.068 29.1651 279.331 29.0337 278.706 28.771C278.085 28.5082 277.598 28.1246 277.246 27.6204C276.898 27.1161 276.71 26.5018 276.682 25.7773H278.626C278.654 26.1573 278.772 26.4734 278.978 26.7255C279.184 26.9776 279.452 27.1658 279.782 27.2901C280.116 27.4144 280.489 27.4766 280.901 27.4766C281.33 27.4766 281.707 27.4126 282.03 27.2848C282.357 27.1534 282.612 26.9723 282.797 26.7415C282.982 26.5071 283.076 26.2337 283.079 25.9212C283.076 25.6371 282.992 25.4027 282.829 25.218C282.665 25.0298 282.436 24.8736 282.142 24.7493C281.85 24.6214 281.51 24.5078 281.119 24.4084L279.878 24.0888C278.979 23.858 278.269 23.5082 277.747 23.0394C277.229 22.5671 276.969 21.9403 276.969 21.1591C276.969 20.5163 277.143 19.9535 277.491 19.4705C277.843 18.9876 278.321 18.6129 278.924 18.3466C279.528 18.0767 280.212 17.9418 280.975 17.9418C281.749 17.9418 282.428 18.0767 283.01 18.3466C283.596 18.6129 284.056 18.984 284.39 19.4599C284.723 19.9322 284.896 20.4755 284.906 21.0898H283.005ZM290.354 29.1598C289.534 29.1598 288.825 28.9893 288.229 28.6484C287.636 28.304 287.179 27.8175 286.86 27.1889C286.54 26.5568 286.38 25.8129 286.38 24.957C286.38 24.1154 286.54 23.3768 286.86 22.7411C287.183 22.1019 287.634 21.6048 288.213 21.2496C288.792 20.891 289.472 20.7116 290.253 20.7116C290.757 20.7116 291.233 20.7933 291.68 20.9567C292.131 21.1165 292.529 21.3651 292.874 21.7024C293.222 22.0398 293.495 22.4695 293.694 22.9915C293.893 23.5099 293.992 24.1278 293.992 24.8452V25.4364H287.286V24.1367H292.144C292.14 23.7674 292.06 23.4389 291.904 23.1513C291.748 22.8601 291.53 22.631 291.249 22.4641C290.972 22.2972 290.649 22.2138 290.28 22.2138C289.885 22.2138 289.539 22.3097 289.241 22.5014C288.943 22.6896 288.71 22.9382 288.543 23.2472C288.38 23.5526 288.296 23.8881 288.293 24.2539V25.3885C288.293 25.8643 288.38 26.2727 288.554 26.6136C288.728 26.951 288.971 27.2102 289.283 27.3913C289.596 27.5689 289.962 27.6577 290.381 27.6577C290.661 27.6577 290.915 27.6186 291.142 27.5405C291.37 27.4588 291.567 27.3398 291.734 27.1836C291.901 27.0273 292.027 26.8338 292.112 26.603L293.912 26.8054C293.799 27.2812 293.582 27.6967 293.263 28.0518C292.946 28.4034 292.542 28.6768 292.048 28.8722C291.554 29.0639 290.99 29.1598 290.354 29.1598ZM297.978 29.1651C297.46 29.1651 296.993 29.0728 296.577 28.8881C296.165 28.6999 295.838 28.4229 295.597 28.0572C295.359 27.6914 295.24 27.2404 295.24 26.7042C295.24 26.2425 295.325 25.8608 295.496 25.5589C295.666 25.2571 295.899 25.0156 296.194 24.8345C296.488 24.6534 296.82 24.5167 297.19 24.4244C297.563 24.3285 297.948 24.2592 298.346 24.2166C298.825 24.1669 299.214 24.1225 299.512 24.0835C299.81 24.0408 300.027 23.9769 300.162 23.8917C300.3 23.8029 300.37 23.6662 300.37 23.4815V23.4496C300.37 23.0483 300.251 22.7376 300.013 22.5174C299.775 22.2972 299.432 22.1871 298.985 22.1871C298.512 22.1871 298.138 22.2901 297.861 22.4961C297.587 22.7021 297.403 22.9453 297.307 23.2259L295.506 22.9702C295.648 22.473 295.883 22.0575 296.21 21.7237C296.536 21.3864 296.936 21.1342 297.408 20.9673C297.88 20.7969 298.402 20.7116 298.974 20.7116C299.368 20.7116 299.761 20.7578 300.151 20.8501C300.542 20.9425 300.899 21.0952 301.222 21.3082C301.545 21.5178 301.804 21.8036 302 22.1658C302.199 22.5281 302.298 22.9808 302.298 23.5241V29H300.444V27.8761H300.38C300.263 28.1033 300.098 28.3164 299.885 28.5153C299.675 28.7106 299.411 28.8686 299.091 28.9893C298.775 29.1065 298.404 29.1651 297.978 29.1651ZM298.479 27.7482C298.866 27.7482 299.201 27.6719 299.485 27.5192C299.77 27.3629 299.988 27.157 300.141 26.9013C300.297 26.6456 300.375 26.3668 300.375 26.065V25.1009C300.315 25.1506 300.212 25.1967 300.066 25.2393C299.924 25.282 299.764 25.3192 299.587 25.3512C299.409 25.3832 299.233 25.4116 299.059 25.4364C298.885 25.4613 298.734 25.4826 298.607 25.5004C298.319 25.5394 298.061 25.6033 297.834 25.6921C297.607 25.7809 297.428 25.9052 297.296 26.065C297.165 26.2212 297.099 26.4237 297.099 26.6722C297.099 27.0273 297.229 27.2955 297.488 27.4766C297.747 27.6577 298.077 27.7482 298.479 27.7482ZM304.237 29V20.8182H306.107V22.1818H306.192C306.341 21.7095 306.597 21.3455 306.959 21.0898C307.325 20.8306 307.742 20.701 308.211 20.701C308.317 20.701 308.436 20.7063 308.567 20.717C308.702 20.7241 308.814 20.7365 308.903 20.7543V22.5281C308.821 22.4996 308.692 22.4748 308.514 22.4535C308.34 22.4286 308.172 22.4162 308.008 22.4162C307.657 22.4162 307.341 22.4925 307.06 22.6452C306.783 22.7944 306.565 23.0021 306.405 23.2685C306.245 23.5348 306.165 23.842 306.165 24.19V29H304.237ZM313.416 29.1598C312.599 29.1598 311.898 28.9805 311.312 28.6218C310.73 28.2631 310.28 27.7678 309.964 27.1357C309.652 26.5 309.496 25.7685 309.496 24.9411C309.496 24.1101 309.655 23.3768 309.975 22.7411C310.295 22.1019 310.746 21.6048 311.328 21.2496C311.914 20.891 312.606 20.7116 313.405 20.7116C314.07 20.7116 314.657 20.8342 315.169 21.0792C315.684 21.3207 316.094 21.6634 316.399 22.1072C316.704 22.5476 316.878 23.0625 316.921 23.652H315.078C315.003 23.2578 314.826 22.9293 314.545 22.6665C314.268 22.4002 313.897 22.267 313.432 22.267C313.038 22.267 312.692 22.3736 312.393 22.5866C312.095 22.7962 311.862 23.098 311.696 23.4922C311.532 23.8864 311.451 24.3587 311.451 24.9091C311.451 25.4666 311.532 25.946 311.696 26.3473C311.859 26.745 312.088 27.0522 312.383 27.2688C312.681 27.4819 313.031 27.5884 313.432 27.5884C313.716 27.5884 313.97 27.5352 314.194 27.4286C314.421 27.3185 314.611 27.1605 314.764 26.9545C314.916 26.7486 315.021 26.4982 315.078 26.2035H316.921C316.875 26.7823 316.704 27.2955 316.41 27.7429C316.115 28.1868 315.714 28.5348 315.206 28.7869C314.698 29.0355 314.101 29.1598 313.416 29.1598ZM320.433 24.206V29H318.504V18.0909H320.39V22.2085H320.486C320.678 21.7468 320.974 21.3828 321.376 21.1165C321.78 20.8466 322.295 20.7116 322.92 20.7116C323.488 20.7116 323.984 20.8306 324.406 21.0685C324.829 21.3065 325.156 21.6545 325.387 22.1126C325.621 22.5707 325.738 23.13 325.738 23.7905V29H323.81V24.0888C323.81 23.5384 323.668 23.1104 323.384 22.805C323.103 22.4961 322.709 22.3416 322.201 22.3416C321.86 22.3416 321.555 22.4162 321.285 22.5653C321.019 22.7109 320.809 22.9222 320.656 23.1992C320.507 23.4762 320.433 23.8118 320.433 24.206Z" fill="white"/>
</g>
</g>
</g>
<defs>
<filter id="filter0_d_9207_23110" x="0" y="0" width="347" height="50" filterUnits="userSpaceOnUse" color-interpolation-filters="sRGB">
<feFlood flood-opacity="0" result="BackgroundImageFix"/>
<feColorMatrix in="SourceAlpha" type="matrix" values="0 0 0 0 0 0 0 0 0 0 0 0 0 0 0 0 0 0 127 0" result="hardAlpha"/>
<feOffset dy="1"/>
<feGaussianBlur stdDeviation="1"/>
<feComposite in2="hardAlpha" operator="out"/>
<feColorMatrix type="matrix" values="0 0 0 0 0.0627451 0 0 0 0 0.0941176 0 0 0 0 0.156863 0 0 0 0.04 0"/>
<feBlend mode="normal" in2="BackgroundImageFix" result="effect1_dropShadow_9207_23110"/>
<feBlend mode="normal" in="SourceGraphic" in2="effect1_dropShadow_9207_23110" result="shape"/>
</filter>
<filter id="filter1_d_9207_23110" x="256" y="0" width="91" height="50" filterUnits="userSpaceOnUse" color-interpolation-filters="sRGB">
<feFlood flood-opacity="0" result="BackgroundImageFix"/>
<feColorMatrix in="SourceAlpha" type="matrix" values="0 0 0 0 0 0 0 0 0 0 0 0 0 0 0 0 0 0 127 0" result="hardAlpha"/>
<feOffset dy="1"/>
<feGaussianBlur stdDeviation="1"/>
<feComposite in2="hardAlpha" operator="out"/>
<feColorMatrix type="matrix" values="0 0 0 0 0.0627451 0 0 0 0 0.0941176 0 0 0 0 0.156863 0 0 0 0.04 0"/>
<feBlend mode="normal" in2="BackgroundImageFix" result="effect1_dropShadow_9207_23110"/>
<feBlend mode="normal" in="SourceGraphic" in2="effect1_dropShadow_9207_23110" result="shape"/>
</filter>
<clipPath id="clip0_9207_23110">
<rect x="2" y="1" width="343" height="46" rx="6" fill="white"/>
</clipPath>
<clipPath id="clip1_9207_23110">
<rect width="20" height="20" fill="white" transform="translate(14 14)"/>
</clipPath>
</defs>
</svg>
