<svg width="48" height="48" viewBox="0 0 48 48" fill="none" xmlns="http://www.w3.org/2000/svg">
<rect width="48" height="48" rx="24" fill="#437EF7"/>
<path d="M23.9999 38.6666C32.1001 38.6666 38.6666 32.1001 38.6666 23.9999C38.6666 15.8997 32.1001 9.33325 23.9999 9.33325M23.9999 38.6666C15.8997 38.6666 9.33325 32.1001 9.33325 23.9999C9.33325 15.8997 15.8997 9.33325 23.9999 9.33325M23.9999 38.6666C26.9454 38.6666 29.3333 32.1001 29.3333 23.9999C29.3333 15.8997 26.9454 9.33325 23.9999 9.33325M23.9999 38.6666C21.0544 38.6666 18.6666 32.1001 18.6666 23.9999C18.6666 15.8997 21.0544 9.33325 23.9999 9.33325M10.6666 18.6666H37.3333M10.6666 27.9999H37.3333" stroke="white" stroke-width="2" stroke-linecap="round"/>
</svg>
