<svg width="48" height="48" viewBox="0 0 48 48" fill="none" xmlns="http://www.w3.org/2000/svg">
<rect width="48" height="48" rx="24" fill="#F5FAFF"/>
<path d="M23.9999 38.6668C32.1001 38.6668 38.6666 32.1003 38.6666 24.0002C38.6666 15.9 32.1001 9.3335 23.9999 9.3335M23.9999 38.6668C15.8997 38.6668 9.33325 32.1003 9.33325 24.0002C9.33325 15.9 15.8997 9.3335 23.9999 9.3335M23.9999 38.6668C26.9454 38.6668 29.3333 32.1003 29.3333 24.0002C29.3333 15.9 26.9454 9.3335 23.9999 9.3335M23.9999 38.6668C21.0544 38.6668 18.6666 32.1003 18.6666 24.0002C18.6666 15.9 21.0544 9.3335 23.9999 9.3335M10.6666 18.6668H37.3333M10.6666 28.0002H37.3333" stroke="#437EF7" stroke-width="2" stroke-linecap="round"/>
</svg>
